PathFileType	4	(X/Y/Z)	W12_1_OpenSim.trc																																																																																																				
DataRate	CameraRate	NumFrames	NumMarkers	Units	OrigDataRate	OrigDataStartFrame	OrigNumFrames																																																																																																
100	100	9	34	mm	100	1482	2962																																																																																																
Frame#	Time	R.ASIS			R.PSIS			S2			L.PSIS			L.ASIS			R.TH1			R.TH2			R.TH3			R.Knee			R.SH1			R.SH2			R.SH3			R.SH4			R.Ankle			R.RFoot			R.Heel			R.MT5			R.MT1			L.TH1			L.TH2			L.TH3			L.TH4			L.Knee			L.SH1			L.SH2			L.SH3			L.Ankle			L.RFoot			L.Heel			L.MT5			L.MT1			T.Top			T.Lat			T.Bot		
		X1	Y1	Z1	X2	Y2	Z2	X3	Y3	Z3	X4	Y4	Z4	X5	Y5	Z5	X6	Y6	Z6	X7	Y7	Z7	X8	Y8	Z8	X9	Y9	Z9	X10	Y10	Z10	X11	Y11	Z11	X12	Y12	Z12	X13	Y13	Z13	X14	Y14	Z14	X15	Y15	Z15	X16	Y16	Z16	X17	Y17	Z17	X18	Y18	Z18	X19	Y19	Z19	X20	Y20	Z20	X21	Y21	Z21	X22	Y22	Z22	X23	Y23	Z23	X24	Y24	Z24	X25	Y25	Z25	X26	Y26	Z26	X27	Y27	Z27	X28	Y28	Z28	X29	Y29	Z29	X30	Y30	Z30	X31	Y31	Z31	X32	Y32	Z32	X33	Y33	Z33	X34	Y34	Z34
1482	14.81	1097.167	991.3381	-414.0113	887.5168	1026.5292	-449.5134	872.9209	1019.0999	-499.5931	879.9901	1025.9571	-551.3154	1078.8787	995.05	-649.4863	1056.5756	714.2412	-365.743	974.0145	717.4011	-356.9494	967.9554	608.4321	-374.142	969.5516	475.1117	-397.8324	971.6849	382.6752	-391.0346	946.5712	273.8304	-391.765	891.8918	405.0436	-387.8834	866.9694	296.4249	-379.5607	863.5059	73.3321	-428.1583	891.4479	27.9028	-420.6371	804.8707	54.1189	-476.1264	977.8877	13.0562	-398.9014	1016.2988	20.0236	-495.0584	1153.6066	752.337	-683.2261	1185.9619	648.2915	-690.1362	1083.8701	726.7921	-718.1035	1116.5139	622.6442	-718.7838	1150.2539	504.9922	-701.2584	1124.3042	382.5299	-703.2783	1049.4113	416.868	-706.153	1005.7088	316.9825	-688.6211	955.3044	140.4174	-658.9858	970.819	80.2244	-669.7461	906.4109	130.4571	-601.7492	1044.1283	47.7507	-695.5895	1092.7096	45.4543	-621.6078	822.4842	367.1712	-419.0085	805.5244	373.952	-453.0767	821.7014	335.0828	-441.0449
1483	14.82	1095.7239	991.2067	-414.0959	886.2225	1026.7189	-449.984	871.8563	1019.2953	-500.2537	878.8548	1026.2227	-552.0759	1078.1306	994.8861	-649.5367	1051.0677	714.1497	-365.895	968.4246	718.2049	-356.9706	961.0749	609.358	-374.3003	960.5279	476.18	-397.526	962.8948	383.4318	-391.208	935.917	274.7712	-392.0992	882.5244	406.7455	-388.2077	856.6647	297.2649	-379.857	853.1135	76.4222	-428.6363	879.2452	29.868	-420.9768	793.8137	56.2812	-476.989	966.0087	13.8966	-399.0903	1004.3599	20.0204	-494.98	1153.1001	752.9547	-682.3807	1186.1509	648.8364	-688.8142	1084.226	726.8869	-717.2788	1116.8304	623.1867	-717.5677	1152.1622	505.4056	-700.2745	1132.2838	382.1342	-703.2001	1055.84	412.2864	-705.244	1018.4548	309.7917	-688.8898	978.6227	128.5725	-661.0112	998.3267	69.8296	-672.5266	929.8173	115.2819	-604.6682	1073.6751	42.4532	-698.212	1122.7335	44.2879	-624.6858	812.3705	368.8784	-419.8963	796.3824	375.7669	-454.1578	811.7658	337.1915	-441.5992
1484	14.83	1094.2192	990.9342	-414.2962	884.582	1026.7639	-450.8341	870.7227	1019.4589	-501.007	877.9821	1026.2535	-552.8869	1077.2808	994.5991	-649.8306	1045.8774	714.0222	-365.8881	963.1366	719.141	-357.095	954.3684	610.3181	-374.5463	951.7554	476.9868	-397.5562	952.8428	384.4735	-390.9617	925.5906	276.0191	-392.1266	873.0864	408.6891	-388.8871	846.1543	299.2756	-380.4846	841.2532	78.2442	-429.3725	867.1191	30.6727	-421.6007	782.3134	58.7888	-478.0021	954.0655	14.8761	-399.6354	992.7035	20.2782	-494.9971	1152.3208	753.0881	-681.895	1185.3892	649.0437	-687.7043	1083.2815	726.9233	-716.951	1116.3356	623.0677	-716.5029	1153.1121	505.536	-699.0078	1139.6403	381.4267	-702.9026	1061.0991	407.1112	-704.1544	1030.463	301.2486	-688.4641	1003.3711	117.9571	-663.5019	1026.9753	60.361	-675.3599	955.7869	99.5488	-606.9738	1103.2781	38.1585	-701.1685	1152.0674	42.7543	-627.3388	803.256	370.7801	-420.9971	787.408	377.8649	-454.8642	802.3452	339.2364	-442.6895
1485	14.84	1092.8439	990.4448	-414.6244	883.7084	1026.7478	-451.615	869.4277	1019.4289	-501.9319	877.1097	1026.1584	-553.6599	1076.6879	994.2989	-650.1534	1040.0017	713.8812	-366.3222	958.1484	720.0835	-357.2242	948.3041	611.0152	-374.929	941.7845	480.8224	-395.9761	943.8706	385.6591	-390.8864	915.2848	277.2689	-392.2337	863.9409	410.4508	-389.654	836.1295	301.3048	-381.1045	829.8917	80.3736	-430.0196	855.3755	31.8741	-421.974	770.9206	61.1892	-478.9667	941.5972	14.4395	-400.1113	980.8749	20.4067	-495.0908	1151.3019	752.8519	-681.5195	1184.2784	648.8336	-686.3736	1082.0582	726.4193	-716.2922	1114.9377	622.4805	-714.9842	1152.9393	505.1131	-697.728	1146.1222	380.6604	-702.6896	1066.6251	401.6974	-703.166	1042.118	293.3514	-688.6935	1028.0641	106.5671	-665.0232	1055.2206	52.1129	-677.7162	981.9128	85.6407	-608.8946	1132.9141	34.7463	-704.38	1181.7456	41.822	-630.3068	793.7237	373.1167	-421.8328	778.6732	379.9085	-455.9913	792.9353	341.6309	-443.7258
1486	14.85	1091.4298	990.1104	-415.0142	882.6866	1026.6525	-452.5292	868.7778	1019.3737	-502.5836	876.0818	1025.9835	-554.621	1075.7391	993.4466	-650.7048	1035.0885	713.7272	-366.4259	953.2559	720.8245	-357.337	941.984	611.9595	-375.2235	935.5971	480.5886	-397.8906	933.2287	386.9277	-391.2434	905.1032	278.666	-392.1271	854.857	412.3152	-390.2203	825.8925	303.3278	-381.5981	818.704	82.3818	-430.7386	843.4466	34.045	-422.5756	759.5635	63.6657	-480.1274	929.3467	14.5328	-400.5325	968.8315	20.4131	-495.3156	1149.4865	751.835	-681.2757	1182.2965	647.732	-685.0821	1079.9369	725.2212	-715.4033	1112.9611	621.1285	-713.1137	1151.6937	504.312	-696.2978	1151.5841	378.8947	-701.4816	1070.9362	395.1041	-701.4362	1053.9439	285.5554	-688.9467	1053.3619	96.4726	-666.6	1083.0349	44.4906	-680.739	1008.6837	73.3688	-610.7028	1162.0953	32.6214	-707.3422	1209.986	41.8537	-633.8178	784.7527	375.4841	-423.238	769.064	382.7762	-456.8074	783.8823	343.8542	-445.0513
1487	14.86	1090.2061	989.6301	-415.4567	881.3461	1026.5939	-453.5128	867.7213	1019.167	-503.757	875.4932	1025.6296	-555.3822	1075.3103	992.8394	-651.0254	1030.4182	713.7103	-366.4077	948.642	721.5611	-357.3314	935.2853	615.0059	-374.8974	927.7775	481.4495	-398.2703	924.8995	387.9638	-391.7277	895.3149	279.8852	-392.1879	846.0894	413.9075	-391.1447	816.6301	305.2328	-383.247	807.4546	84.4897	-431.5059	831.8561	36.5191	-422.6971	748.3532	66.4287	-481.2885	917.1097	15.0814	-400.9637	957.8343	20.4999	-494.5738	1147.5496	750.4749	-680.9449	1179.6488	645.889	-684.1515	1078.2747	723.6253	-714.4304	1109.8567	619.7588	-711.6676	1149.5192	502.6462	-695.2648	1156.8362	377.8641	-701.6416	1075.2541	387.2602	-700.4699	1065.4941	277.6065	-689.2734	1078.196	89.1933	-668.6718	1109.9045	39.6038	-683.2728	1036.3881	62.9695	-612.1028	1191.311	31.9979	-709.8654	1239.0774	42.6064	-635.9747	775.9676	377.9828	-424.5769	760.6364	385.2716	-458.1053	774.9495	346.3684	-446.2948
1488	14.87	1088.9055	989.0556	-415.8663	880.4937	1026.4376	-454.3136	866.9268	1018.8963	-504.4976	874.5687	1025.1877	-556.5146	1075.4313	992.187	-651.7623	1026.0812	713.5289	-366.5069	944.3517	722.0557	-357.6083	930.424	615.5659	-374.9737	918.7954	483.3542	-396.8693	916.3295	388.7035	-391.9621	886.4619	281.4603	-391.9636	837.7364	415.8547	-391.8578	806.8738	307.4636	-383.9858	795.8765	86.3904	-432.2499	819.6457	37.9835	-423.4108	737.256	69.195	-482.1895	904.7234	15.2794	-401.414	945.2194	20.5297	-495.0983	1145.2756	748.0817	-680.9932	1176.5444	643.351	-683.1973	1075.4313	721.6386	-713.6581	1106.5	617.4143	-710.0555	1146.8049	500.348	-694.2153	1161.5906	376.5696	-701.8646	1079.5684	379.8267	-700.5054	1077.4746	269.9921	-690.141	1103.6793	81.8974	-669.6682	1140.0856	34.0542	-683.7767	1062.5735	53.0914	-614.067	1219.944	32.6538	-711.4915	1266.7079	45.8745	-637.6075	767.4706	380.4198	-425.7742	752.625	387.9068	-459.6182	766.3431	348.9052	-447.5968
1489	14.88	1087.7946	988.3575	-416.3289	879.2495	1026.176	-455.3663	866.0696	1018.379	-505.5173	874.1861	1024.5669	-557.3551	1075.0521	990.9818	-651.9093	1021.0692	712.0465	-367.013	940.1085	722.5905	-358.0903	924.9689	616.3592	-375.2335	911.7637	484.1709	-397.0967	908.2877	389.5799	-392.1597	879.1862	281.5652	-393.6046	829.9833	417.5205	-392.6726	797.9146	309.215	-385.1191	784.8036	88.5528	-432.8229	807.4584	37.8415	-424.1975	726.0804	72.1253	-483.2011	892.8792	15.5193	-401.4961	933.0463	20.392	-495.2703	1142.7772	745.1691	-680.9382	1172.8364	640.1364	-682.4384	1072.1038	718.985	-713.3045	1102.1628	614.2963	-708.5429	1143.2324	497.3178	-693.2323	1165.9709	375.3487	-701.3534	1084.0381	373.1037	-700.8381	1089.0344	263.4106	-690.8323	1126.8716	77.4135	-671.5002	1167.637	31.1522	-685.2826	1089.1398	45.6077	-615.3016	1247.6152	35.1043	-712.3817	1293.3922	51.3458	-638.1201	759.3534	383.0486	-427.1435	744.8161	390.6188	-460.9306	758.0008	351.3401	-448.947
1490	14.89	1086.6383	987.5847	-416.6949	878.4746	1025.645	-456.6668	865.4076	1017.5467	-506.8981	873.5991	1023.7192	-558.6531	1074.8098	989.7391	-652.3061	1016.8359	711.8397	-366.7852	934.8898	723.8876	-357.5445	919.9968	616.9708	-375.3742	905.1882	484.8439	-397.2714	900.4225	390.3418	-392.2332	870.0045	283.8743	-395.2281	822.1747	419.514	-393.2985	788.6766	310.9209	-385.9492	773.7716	90.7521	-433.2317	795.6978	39.5536	-424.6082	715.0842	75.0862	-483.982	880.7376	16.4936	-402.1659	920.6648	20.3794	-495.3755	1140.1222	741.4813	-681.3267	1168.5863	635.7639	-682.3961	1068.9548	716.203	-712.8624	1097.6677	610.9471	-707.7341	1139.2595	494.4994	-692.4357	1169.5189	374.6567	-700.7963	1087.8276	367.1781	-701.0267	1099.8843	258.0472	-691.5594	1150.7239	74.0155	-672.7965	1194.2272	30.4081	-686.3569	1113.2909	40.6867	-616.7467	1274.3451	38.9107	-712.2359	1317.9482	58.5805	-637.7407	751.8057	385.5841	-428.4074	737.3223	393.3966	-462.2417	750.1121	353.9279	-449.9902
